# Blender v2.90.0 OBJ File: 'brug.blend'
# www.blender.org
mtllib brug.mtl
o Cube_Cube.001
v -1.000000 0.000000 1.000000
v -1.000000 0.328866 1.000000
v -1.000000 0.000000 -1.000000
v -1.000000 0.303052 -1.000000
v 1.000000 0.000000 1.000000
v 1.000000 0.328866 1.000000
v 1.000000 0.000000 -1.000000
v 1.000000 0.303052 -1.000000
v -1.000000 0.000000 -0.928599
v -1.000000 0.000000 0.908975
v -1.000000 0.328866 0.908975
v -1.000000 0.303052 -0.928599
v 1.000000 0.000000 0.908975
v 1.000000 0.000000 -0.928599
v 1.000000 0.303052 -0.928599
v 1.000000 0.328866 0.908975
v -1.000000 0.000000 -0.873581
v -1.000000 0.000000 0.842510
v -1.000000 0.100326 0.842510
v -1.000000 0.100326 -0.873581
v 1.000000 0.000000 0.842510
v 1.000000 0.000000 -0.873581
v 1.000000 0.100326 -0.873581
v 1.000000 0.100326 0.842510
vt 0.375000 0.166667
vt 0.625000 0.166667
vt 0.625000 0.250000
vt 0.375000 0.250000
vt 0.625000 0.500000
vt 0.375000 0.500000
vt 0.375000 0.666667
vt 0.625000 0.666667
vt 0.625000 0.750000
vt 0.375000 0.750000
vt 0.625000 1.000000
vt 0.375000 1.000000
vt 0.125000 0.666667
vt 0.125000 0.750000
vt 0.875000 0.666667
vt 0.875000 0.750000
vt 0.875000 0.500000
vt 0.875000 0.583333
vt 0.625000 0.583333
vt 0.625000 0.638889
vt 0.875000 0.638889
vt 0.125000 0.500000
vt 0.375000 0.583333
vt 0.125000 0.583333
vt 0.125000 0.638889
vt 0.375000 0.638889
vt 0.375000 0.000000
vt 0.625000 0.000000
vt 0.625000 0.083333
vt 0.375000 0.083333
vt 0.375000 0.138889
vt 0.625000 0.138889
vt 0.625000 0.111111
vt 0.375000 0.111111
vt 0.625000 0.611111
vt 0.375000 0.611111
vt 0.125000 0.611111
vt 0.875000 0.611111
vn -1.0000 0.0000 0.0000
vn 0.0000 0.0000 -1.0000
vn 1.0000 0.0000 0.0000
vn 0.0000 0.0000 1.0000
vn 0.0000 -1.0000 0.0000
vn 0.0000 1.0000 0.0000
vn 0.0000 0.2793 -0.9602
vn 0.0000 0.2619 0.9651
usemtl None
s off
f 9/1/1 12/2/1 4/3/1 3/4/1
f 3/4/2 4/3/2 8/5/2 7/6/2
f 13/7/3 16/8/3 6/9/3 5/10/3
f 5/10/4 6/9/4 2/11/4 1/12/4
f 10/13/5 13/7/5 5/10/5 1/14/5
f 16/8/6 11/15/6 2/16/6 6/9/6
f 8/5/6 4/17/6 12/18/6 15/19/6
f 24/20/7 19/21/7 11/15/7 16/8/7
f 3/22/5 7/6/5 14/23/5 9/24/5
f 18/25/5 21/26/5 13/7/5 10/13/5
f 7/6/3 8/5/3 15/19/3 14/23/3
f 21/26/3 24/20/3 16/8/3 13/7/3
f 1/27/1 2/28/1 11/29/1 10/30/1
f 17/31/1 20/32/1 12/2/1 9/1/1
f 10/30/1 11/29/1 19/33/1 18/34/1
f 18/34/1 19/33/1 20/32/1 17/31/1
f 14/23/3 15/19/3 23/35/3 22/36/3
f 22/36/3 23/35/3 24/20/3 21/26/3
f 9/24/5 14/23/5 22/36/5 17/37/5
f 17/37/5 22/36/5 21/26/5 18/25/5
f 15/19/8 12/18/8 20/38/8 23/35/8
f 23/35/6 20/38/6 19/21/6 24/20/6
