# Blender v2.90.0 OBJ File: 'steen.blend'
# www.blender.org
mtllib steen.mtl
o Cube
v 0.671209 1.689321 -1.000000
v 0.371138 0.620025 -1.000000
v 0.676329 1.538611 1.000000
v 0.423254 0.680114 0.844044
v -0.694759 1.714436 -1.000000
v -0.441002 0.669433 -1.000000
v -0.614673 1.721671 1.000000
v -0.647669 0.781162 0.760936
v 1.000000 1.333333 -1.000000
v 1.000000 0.947861 -1.000000
v -1.000000 1.055189 1.000000
v -1.000000 1.333333 1.000000
v 1.000000 1.333333 1.000000
v 1.000000 0.952238 1.000000
v -1.000000 1.333333 -1.000000
v -1.000000 0.998027 -1.000000
v 0.000000 0.642173 -1.498091
v 0.000000 1.630495 1.841282
v 0.000000 0.721497 1.487234
v 0.000000 1.737770 -1.722175
v 0.000000 0.967596 -1.965402
v 0.000000 1.333333 -1.965402
v 0.000000 0.977559 1.936241
v 0.000000 1.333333 2.000307
vt 0.750000 0.500000
vt 0.875000 0.500000
vt 0.875000 0.750000
vt 0.750000 0.750000
vt 0.541667 0.875000
vt 0.625000 0.875000
vt 0.625000 1.000000
vt 0.541667 1.000000
vt 0.541667 0.000000
vt 0.625000 0.000000
vt 0.625000 0.250000
vt 0.541667 0.250000
vt 0.250000 0.500000
vt 0.375000 0.500000
vt 0.375000 0.750000
vt 0.250000 0.750000
vt 0.541667 0.500000
vt 0.625000 0.500000
vt 0.625000 0.750000
vt 0.541667 0.750000
vt 0.541667 0.375000
vt 0.625000 0.375000
vt 0.375000 0.375000
vt 0.458333 0.375000
vt 0.458333 0.500000
vt 0.458333 0.750000
vt 0.375000 0.000000
vt 0.458333 0.000000
vt 0.458333 0.250000
vt 0.375000 0.250000
vt 0.375000 0.875000
vt 0.458333 0.875000
vt 0.458333 1.000000
vt 0.375000 1.000000
vt 0.125000 0.500000
vt 0.125000 0.750000
vn 0.0502 0.9986 0.0172
vn -0.6406 0.4961 0.5862
vn -0.7442 0.6679 0.0137
vn -0.0743 -0.9968 0.0296
vn 0.6519 0.7578 0.0277
vn 0.6337 0.4704 -0.6141
vn 0.4589 -0.7650 -0.4518
vn 0.6946 0.0000 -0.7194
vn 0.4446 -0.8957 0.0090
vn 1.0000 0.0000 0.0000
vn -0.5502 -0.8350 0.0073
vn -1.0000 0.0000 0.0000
vn -0.4555 -0.8026 0.3851
vn -0.6952 -0.0723 0.7151
vn 0.6939 -0.0624 0.7174
vn 0.3787 -0.8453 0.3770
vn -0.6946 0.0000 -0.7194
vn -0.4907 -0.7438 -0.4539
vn -0.6357 0.4428 -0.6323
vn -0.0871 -0.9955 0.0363
vn 0.6214 0.5703 0.5372
vn 0.1075 0.9931 0.0460
usemtl Material
s off
f 20/1/1 5/2/1 7/3/1 18/4/1
f 24/5/2 18/6/2 7/7/2 12/8/2
f 12/9/3 7/10/3 5/11/3 15/12/3
f 17/13/4 2/14/4 4/15/4 19/16/4
f 9/17/5 1/18/5 3/19/5 13/20/5
f 22/21/6 20/22/6 1/18/6 9/17/6
f 17/23/7 21/24/7 10/25/7 2/14/7
f 21/24/8 22/21/8 9/17/8 10/25/8
f 2/14/9 10/25/9 14/26/9 4/15/9
f 10/25/10 9/17/10 13/20/10 14/26/10
f 8/27/11 11/28/11 16/29/11 6/30/11
f 11/28/12 12/9/12 15/12/12 16/29/12
f 19/31/13 23/32/13 11/33/13 8/34/13
f 23/32/14 24/5/14 12/8/14 11/33/14
f 14/26/15 13/20/15 24/5/15 23/32/15
f 4/15/16 14/26/16 23/32/16 19/31/16
f 16/29/17 15/12/17 22/21/17 21/24/17
f 6/30/18 16/29/18 21/24/18 17/23/18
f 15/12/19 5/11/19 20/22/19 22/21/19
f 6/35/20 17/13/20 19/16/20 8/36/20
f 13/20/21 3/19/21 18/6/21 24/5/21
f 1/18/22 20/1/22 18/4/22 3/19/22
